<svg xmlns="http://www.w3.org/2000/svg" viewBox="0 0 256 256" role="img" aria-label="CPRAIO"><rect width="256" height="256" rx="52" fill="#082d63"/><circle cx="128" cy="128" r="104" fill="#071120" stroke="#fff" stroke-width="12"/><circle cx="128" cy="128" r="86" fill="#111" stroke="#082d63" stroke-width="10"/><path d="M148 28 75 137h48l-21 91 80-123h-49l15-77z" fill="#f5d51b"/><path d="M75 130c27 21 48 25 70 0 18-20 44-20 66-4-23 35-57 51-95 38-22-8-40-21-41-34z" fill="#fff"/><circle cx="128" cy="91" r="17" fill="#fff"/><path d="M111 115c10-16 24-16 34 0l14 44h-62l14-44z" fill="#bfc3c7"/><text x="128" y="207" text-anchor="middle" font-family="Arial,Helvetica,sans-serif" font-size="47" font-weight="900" fill="#fff">RAIO</text></svg>