<svg xmlns="http://www.w3.org/2000/svg" viewBox="0 0 256 256" role="img" aria-label="Polícia Militar do Ceará"><rect width="256" height="256" rx="52" fill="#f7fbfa"/><path d="M128 18 213 52v70c0 56-34 93-85 116-51-23-85-60-85-116V52l85-34z" fill="#0f7b38" stroke="#082d63" stroke-width="8"/><path d="M128 34 196 61v59c0 46-27 76-68 95-41-19-68-49-68-95V61l68-27z" fill="#fff"/><path d="M72 78h112v42H72z" fill="#d91f26"/><path d="M72 120h56v62H72z" fill="#0f7b38"/><path d="M128 120h56v62h-56z" fill="#f5d51b"/><circle cx="101" cy="151" r="18" fill="#f5d51b"/><path d="M146 149c15-23 30-23 43 0-15 23-29 23-43 0z" fill="#0f7b38"/><path d="M92 78l36 20 36-20-36-20-36 20z" fill="#f5d51b"/><path d="M113 49h30v20h-30z" fill="#f5d51b"/><text x="128" y="236" text-anchor="middle" font-family="Arial,Helvetica,sans-serif" font-size="28" font-weight="900" fill="#082d63">PMCE</text></svg>